<svg width="29" height="38" viewBox="0 0 29 38" fill="none" xmlns="http://www.w3.org/2000/svg">
<path fill-rule="evenodd" clip-rule="evenodd" d="M22.4086 4.46488C23.6526 4.46488 24.6608 3.46524 24.6608 2.23229C24.6608 0.999366 23.6526 0 22.4086 0C21.1646 0 20.1558 0.999366 20.1558 2.23229C20.1558 3.01832 20.5662 3.70988 21.1858 4.10757C14.8873 15.3373 9.64281 16.2448 0.466615 4.83355C0.384312 4.73201 0.235579 4.70154 0.123882 4.76894C0.0498091 4.81334 0.00689421 4.88902 0.00101543 4.96866C-0.00427548 5.02867 0.0110098 5.09101 0.0492219 5.14362C9.72923 18.619 10.1119 25.5432 8.25542 37.3421C8.23543 37.4648 8.33125 37.5783 8.45647 37.5783C8.55289 37.5783 8.63637 37.5091 8.65694 37.4161C11.6975 23.7336 16.424 20.1828 28.2315 18.7797C28.335 18.7675 28.4155 18.6805 28.4155 18.5772C28.4155 18.4501 28.2927 18.3553 28.1663 18.3777C15.6127 20.6146 15.3305 16.3188 21.6038 4.31806C21.8536 4.41279 22.1247 4.46488 22.4086 4.46488Z" fill="white"/>
</svg>
